# xmcd
#
# Track frame offsets:
#	150
#	16200
#	31080
#	54100
#	69920
#	87077
#	99580
#	116025
#	133840
#	153185
#	169217
#
# Disc length: 2870 seconds
#
# Revision: 0
# Processed by: cddbd v1.4PL0 Copyright (c) Steve Scherf et al.
# Submitted via: dBpowerAMP V4.0
#
DISCID=7e0b340b
DTITLE=The Suicide Kings - ...and make it strong
DYEAR=1995
DGENRE=Blues
TTITLE0=Until You Came Along
TTITLE1=Beg Borrow And Steal
TTITLE2=Best I Can
TTITLE3=Midnight Rider
TTITLE4=Royalty
TTITLE5=I Don't Mind
TTITLE6=We're Gonna Make It
TTITLE7=Come On Home
TTITLE8=15 Miles (This Side Of Toledo)
TTITLE9=Trees Don't Care
TTITLE10=Backdoor Man
EXTD=
EXTT0=
EXTT1=
EXTT2=
EXTT3=
EXTT4=
EXTT5=
EXTT6=
EXTT7=
EXTT8=
EXTT9=
EXTT10=
PLAYORDER=
